<mxfile host="Electron" agent="Mozilla/5.0 (Windows NT 10.0; Win64; x64) AppleWebKit/537.36 (KHTML, like Gecko) draw.io/24.7.17 Chrome/128.0.6613.36 Electron/32.0.1 Safari/537.36" version="24.7.17">
  <diagram name="Seite-1" id="R0aHDFtCkrT7WoSOV8md">
    <mxGraphModel dx="1434" dy="957" grid="1" gridSize="10" guides="1" tooltips="1" connect="1" arrows="1" fold="1" page="1" pageScale="1" pageWidth="1169" pageHeight="827" math="0" shadow="0">
      <root>
        <mxCell id="0" />
        <mxCell id="1" parent="0" />
        <mxCell id="5FB76fzgtN4Mtl5dD62B-1" value="" style="html=1;shadow=0;dashed=0;shape=mxgraph.bootstrap.rrect;rSize=5;strokeColor=#0071D5;html=1;whiteSpace=wrap;fillColor=#0085FC;fontColor=#ffffff;verticalAlign=bottom;align=left;spacing=20;spacingBottom=0;fontSize=16;" parent="1" vertex="1">
          <mxGeometry x="50" y="130" width="380" height="220" as="geometry" />
        </mxCell>
        <mxCell id="5FB76fzgtN4Mtl5dD62B-2" value="Naemon Process" style="html=1;shadow=0;dashed=0;shape=mxgraph.bootstrap.topButton;rSize=5;perimeter=none;whiteSpace=wrap;fillColor=#0081F4;strokeColor=#0071D5;fontColor=#ffffff;resizeWidth=1;fontSize=18;align=left;spacing=20;" parent="5FB76fzgtN4Mtl5dD62B-1" vertex="1">
          <mxGeometry width="380" height="50" relative="1" as="geometry" />
        </mxCell>
        <mxCell id="cy9vblpNPn31SKOtWbtc-17" value="Check Logic" style="rounded=0;whiteSpace=wrap;html=1;fillColor=#1ba1e2;fontColor=#ffffff;strokeColor=#006EAF;fontSize=16;" parent="5FB76fzgtN4Mtl5dD62B-1" vertex="1">
          <mxGeometry x="30.25750000000002" y="90" width="319.47821428571433" height="90" as="geometry" />
        </mxCell>
        <mxCell id="cy9vblpNPn31SKOtWbtc-24" value="&lt;br style=&quot;font-size: 16px;&quot;&gt;Executable binaries and scripts&lt;div style=&quot;font-size: 16px;&quot;&gt;e.g. Bash, Perl, Python, etc.&lt;/div&gt;" style="html=1;shadow=0;dashed=0;shape=mxgraph.bootstrap.rrect;rSize=5;strokeColor=#5B646A;html=1;whiteSpace=wrap;fillColor=#6C767D;fontColor=#ffffff;verticalAlign=bottom;align=left;spacing=20;spacingBottom=0;fontSize=16;" parent="1" vertex="1">
          <mxGeometry x="50" y="400" width="380" height="130" as="geometry" />
        </mxCell>
        <mxCell id="cy9vblpNPn31SKOtWbtc-25" value="Check Plugins" style="html=1;shadow=0;dashed=0;shape=mxgraph.bootstrap.topButton;rSize=5;perimeter=none;whiteSpace=wrap;fillColor=#697279;strokeColor=#5B646A;fontColor=#ffffff;resizeWidth=1;fontSize=18;align=left;spacing=20;" parent="cy9vblpNPn31SKOtWbtc-24" vertex="1">
          <mxGeometry width="380" height="50" relative="1" as="geometry" />
        </mxCell>
        <mxCell id="cy9vblpNPn31SKOtWbtc-26" value="&lt;font style=&quot;font-size: 16px;&quot;&gt;&lt;br style=&quot;&quot;&gt;Host and Services&lt;/font&gt;" style="html=1;shadow=0;dashed=0;shape=mxgraph.bootstrap.rrect;rSize=5;strokeColor=#D89F20;html=1;whiteSpace=wrap;fillColor=#FFBC26;fontColor=#ffffff;verticalAlign=bottom;align=left;spacing=20;spacingBottom=0;fontSize=14;" parent="1" vertex="1">
          <mxGeometry x="50" y="580" width="380" height="130" as="geometry" />
        </mxCell>
        <mxCell id="cy9vblpNPn31SKOtWbtc-27" value="Target" style="html=1;shadow=0;dashed=0;shape=mxgraph.bootstrap.topButton;rSize=5;perimeter=none;whiteSpace=wrap;fillColor=#F7B625;strokeColor=#D89F20;fontColor=#ffffff;resizeWidth=1;fontSize=18;align=left;spacing=20;" parent="cy9vblpNPn31SKOtWbtc-26" vertex="1">
          <mxGeometry width="380" height="50" relative="1" as="geometry" />
        </mxCell>
        <mxCell id="cy9vblpNPn31SKOtWbtc-28" value="" style="endArrow=none;dashed=1;html=1;rounded=0;fontColor=#1D0101;strokeColor=#1D0101;" parent="1" edge="1">
          <mxGeometry width="50" height="50" relative="1" as="geometry">
            <mxPoint x="9" y="376" as="sourcePoint" />
            <mxPoint x="735" y="376" as="targetPoint" />
          </mxGeometry>
        </mxCell>
        <mxCell id="cy9vblpNPn31SKOtWbtc-29" value="&lt;font style=&quot;font-size: 16px;&quot;&gt;Monitoring Logic&lt;/font&gt;" style="text;html=1;align=center;verticalAlign=middle;resizable=0;points=[];autosize=1;strokeColor=none;fillColor=none;fontSize=16;fontColor=#1D0101;" parent="1" vertex="1">
          <mxGeometry x="470" y="225" width="140" height="30" as="geometry" />
        </mxCell>
        <mxCell id="cy9vblpNPn31SKOtWbtc-30" value="&lt;font style=&quot;font-size: 16px;&quot;&gt;Monitoring Abstraction Layer&lt;/font&gt;" style="text;html=1;align=center;verticalAlign=middle;resizable=0;points=[];autosize=1;strokeColor=none;fillColor=none;fontSize=16;fontColor=#1D0101;" parent="1" vertex="1">
          <mxGeometry x="468" y="450" width="230" height="30" as="geometry" />
        </mxCell>
        <mxCell id="cy9vblpNPn31SKOtWbtc-31" value="&lt;font style=&quot;font-size: 16px;&quot;&gt;Monitoring Entities&lt;/font&gt;" style="text;html=1;align=center;verticalAlign=middle;resizable=0;points=[];autosize=1;strokeColor=none;fillColor=none;fontSize=16;fontColor=#1D0101;" parent="1" vertex="1">
          <mxGeometry x="468" y="630" width="160" height="30" as="geometry" />
        </mxCell>
        <mxCell id="cy9vblpNPn31SKOtWbtc-32" value="" style="endArrow=none;dashed=1;html=1;rounded=0;fontColor=#1D0101;strokeColor=#1D0101;" parent="1" edge="1">
          <mxGeometry width="50" height="50" relative="1" as="geometry">
            <mxPoint x="10" y="560" as="sourcePoint" />
            <mxPoint x="736" y="560" as="targetPoint" />
          </mxGeometry>
        </mxCell>
        <mxCell id="cy9vblpNPn31SKOtWbtc-34" style="edgeStyle=orthogonalEdgeStyle;rounded=0;orthogonalLoop=1;jettySize=auto;html=1;entryX=0.5;entryY=-0.027;entryDx=0;entryDy=0;entryPerimeter=0;fontColor=#1D0101;strokeColor=#1D0101;" parent="1" source="cy9vblpNPn31SKOtWbtc-17" target="cy9vblpNPn31SKOtWbtc-25" edge="1">
          <mxGeometry relative="1" as="geometry" />
        </mxCell>
        <mxCell id="cy9vblpNPn31SKOtWbtc-35" style="edgeStyle=orthogonalEdgeStyle;rounded=0;orthogonalLoop=1;jettySize=auto;html=1;entryX=0.498;entryY=-0.013;entryDx=0;entryDy=0;entryPerimeter=0;fontColor=#1D0101;strokeColor=#1D0101;" parent="1" source="cy9vblpNPn31SKOtWbtc-24" target="cy9vblpNPn31SKOtWbtc-27" edge="1">
          <mxGeometry relative="1" as="geometry" />
        </mxCell>
      </root>
    </mxGraphModel>
  </diagram>
</mxfile>
